<?xml version="1.0" encoding="UTF-8" standalone="no"?>
<svg
   version="1.1"
   viewBox="800 1100 4546.0039 1535.1837"
   style="clip-rule:evenodd;fill-rule:evenodd;image-rendering:optimizeQuality;shape-rendering:geometricPrecision;text-rendering:geometricPrecision"
   id="svg193"
   sodipodi:docname="logo_dark_full.svg"
   inkscape:version="1.4.2 (ebf0e94, 2025-05-08)"
   width="4546.0039"
   height="1535.1837"
   xmlns:inkscape="http://www.inkscape.org/namespaces/inkscape"
   xmlns:sodipodi="http://sodipodi.sourceforge.net/DTD/sodipodi-0.dtd"
   xmlns="http://www.w3.org/2000/svg"
   xmlns:svg="http://www.w3.org/2000/svg">
  <defs
     id="defs197">
    <inkscape:path-effect
       effect="fillet_chamfer"
       id="path-effect47"
       is_visible="true"
       lpeversion="1"
       nodesatellites_param=""
       radius="40"
       unit="px"
       method="auto"
       mode="F"
       chamfer_steps="1"
       flexible="false"
       use_knot_distance="true"
       apply_no_radius="true"
       apply_with_radius="true"
       only_selected="false"
       hide_knots="false"
       satellites_param="" />
    <inkscape:path-effect
       effect="fillet_chamfer"
       id="path-effect46"
       is_visible="true"
       lpeversion="1"
       nodesatellites_param=""
       radius="80"
       unit="px"
       method="auto"
       mode="F"
       chamfer_steps="1"
       flexible="false"
       use_knot_distance="true"
       apply_no_radius="true"
       apply_with_radius="true"
       only_selected="false"
       hide_knots="false"
       satellites_param="" />
    <inkscape:path-effect
       effect="fillet_chamfer"
       id="path-effect11"
       is_visible="true"
       lpeversion="1"
       nodesatellites_param=""
       radius="40"
       unit="px"
       method="auto"
       mode="F"
       chamfer_steps="1"
       flexible="false"
       use_knot_distance="true"
       apply_no_radius="true"
       apply_with_radius="true"
       only_selected="false"
       hide_knots="false"
       satellites_param="" />
    <inkscape:path-effect
       effect="fillet_chamfer"
       id="path-effect10"
       is_visible="true"
       lpeversion="1"
       nodesatellites_param=""
       radius="80"
       unit="px"
       method="auto"
       mode="F"
       chamfer_steps="1"
       flexible="false"
       use_knot_distance="true"
       apply_no_radius="true"
       apply_with_radius="true"
       only_selected="false"
       hide_knots="false"
       satellites_param="" />
    <inkscape:path-effect
       effect="fillet_chamfer"
       id="path-effect9"
       is_visible="true"
       lpeversion="1"
       nodesatellites_param=""
       radius="80"
       unit="px"
       method="auto"
       mode="F"
       chamfer_steps="1"
       flexible="false"
       use_knot_distance="true"
       apply_no_radius="true"
       apply_with_radius="true"
       only_selected="false"
       hide_knots="false"
       satellites_param="" />
    <inkscape:path-effect
       effect="fillet_chamfer"
       id="path-effect8"
       is_visible="true"
       lpeversion="1"
       nodesatellites_param=""
       radius="80"
       unit="px"
       method="auto"
       mode="F"
       chamfer_steps="1"
       flexible="false"
       use_knot_distance="true"
       apply_no_radius="true"
       apply_with_radius="true"
       only_selected="false"
       hide_knots="false"
       satellites_param="" />
    <inkscape:path-effect
       effect="fillet_chamfer"
       id="path-effect6"
       is_visible="true"
       lpeversion="1"
       nodesatellites_param=""
       radius="80"
       unit="px"
       method="auto"
       mode="F"
       chamfer_steps="1"
       flexible="false"
       use_knot_distance="true"
       apply_no_radius="true"
       apply_with_radius="true"
       only_selected="false"
       hide_knots="false"
       satellites_param="" />
    <inkscape:path-effect
       effect="fillet_chamfer"
       id="path-effect5"
       is_visible="true"
       lpeversion="1"
       nodesatellites_param=""
       radius="80"
       unit="px"
       method="auto"
       mode="F"
       chamfer_steps="1"
       flexible="false"
       use_knot_distance="true"
       apply_no_radius="true"
       apply_with_radius="true"
       only_selected="false"
       hide_knots="false"
       satellites_param="" />
    <inkscape:path-effect
       effect="fillet_chamfer"
       id="path-effect4"
       is_visible="true"
       lpeversion="1"
       nodesatellites_param=""
       radius="80"
       unit="px"
       method="auto"
       mode="F"
       chamfer_steps="1"
       flexible="false"
       use_knot_distance="true"
       apply_no_radius="true"
       apply_with_radius="true"
       only_selected="false"
       hide_knots="false"
       satellites_param="" />
    <inkscape:path-effect
       effect="fillet_chamfer"
       id="path-effect2"
       is_visible="true"
       lpeversion="1"
       nodesatellites_param=""
       radius="80"
       unit="px"
       method="auto"
       mode="F"
       chamfer_steps="1"
       flexible="false"
       use_knot_distance="true"
       apply_no_radius="true"
       apply_with_radius="true"
       only_selected="false"
       hide_knots="false"
       satellites_param="" />
  </defs>
  <sodipodi:namedview
     id="namedview195"
     pagecolor="#ffffff"
     bordercolor="#666666"
     borderopacity="1.0"
     inkscape:pageshadow="2"
     inkscape:pageopacity="0.0"
     inkscape:pagecheckerboard="0"
     showgrid="true"
     inkscape:object-paths="false"
     inkscape:zoom="0.1767767"
     inkscape:cx="2684.1773"
     inkscape:cy="585.48441"
     inkscape:window-width="1920"
     inkscape:window-height="1048"
     inkscape:window-x="1280"
     inkscape:window-y="-5"
     inkscape:window-maximized="1"
     inkscape:current-layer="svg193"
     fit-margin-top="0"
     fit-margin-left="0"
     fit-margin-right="0"
     fit-margin-bottom="0"
     inkscape:snap-bbox="true"
     inkscape:snap-global="true"
     inkscape:snap-nodes="true"
     inkscape:bbox-paths="false"
     inkscape:bbox-nodes="false"
     inkscape:snap-bbox-edge-midpoints="false"
     inkscape:snap-bbox-midpoints="false"
     inkscape:snap-intersection-paths="false"
     inkscape:snap-midpoints="true"
     inkscape:snap-object-midpoints="false"
     inkscape:snap-page="false"
     inkscape:snap-grids="true"
     inkscape:snap-others="false"
     inkscape:object-nodes="true"
     inkscape:snap-to-guides="false"
     inkscape:showpageshadow="2"
     inkscape:deskcolor="#d1d1d1">
    <inkscape:grid
       type="xygrid"
       id="grid85562"
       originx="-139.99625"
       originy="1687.5925"
       dotted="false"
       snapvisiblegridlinesonly="true"
       spacingy="1"
       spacingx="1"
       units="px" />
  </sodipodi:namedview>
  <g
     id="g1"
     style="clip-rule:evenodd;fill-rule:evenodd;image-rendering:optimizeQuality;shape-rendering:geometricPrecision;text-rendering:geometricPrecision"
     transform="translate(-3.9659318e-6,-5.6247399e-4)">
    <path
       fill="#ffffff"
       d="m 3696.0037,1605.0924 c 80,0 125,40 125,120 v 285 c 0,80 -45,120 -125,120 -80,0 -125,-40 -125,-120 v -285 c 0,-80 45,-120 125,-120 z m 45,120 v 285 c 0,30 -15,40 -45,40 -30,0 -45,-10 -45,-40 v -285 c 0,-30 15.0025,-39.9752 45,-40 30,0 45,10 45,40 z"
       id="path149"
       sodipodi:nodetypes="cccccccccccccc" />
    <path
       fill="#ffffff"
       d="m 4446.0037,1725.0924 v 40 h -80 v -40 c 0,-30 -15,-40 -45,-40 -30,0 -45,10 -45,40 v 285 c 0,30 15,40 45,40 30,0 45,-10 45,-40 v -45 h 80 v 45 c 0,80 -50,120 -130,120 -80,0 -120,-40 -120,-120 -0.67,-106.67 -0.67,-178.33 0,-285 0,-80 45,-120 125,-120 80,0 125,40 125,120 z"
       id="path153"
       sodipodi:nodetypes="ccccccccccccccccc" />
    <path
       fill="#ffffff"
       d="m 2815.4027,1605.2249 c 36,-0.17 64,-0.5 100,0 l 95,525 h -80 l -20,-110 h -95 l -20,110 h -80 z m 47.5,150.25 37.5,184.75 h -75 z"
       id="path161"
       sodipodi:nodetypes="ccccccccccccc" />
    <path
       fill="#ffffff"
       d="m 3016.6047,1605.0924 h 80 l 61.3536,189.9668 53.6464,-189.9668 h 80 l -94.6464,319.9668 -0.3536,205.0332 h -80 v -205 z"
       id="path165"
       sodipodi:nodetypes="cccccccccc" />
    <path
       fill="#ffffff"
       d="m 3331.0037,1605.0924 h 200 v 80 h -115 v 150 h 105 v 80 h -105 v 215 h -80 z"
       id="path169"
       sodipodi:nodetypes="ccccccccccc" />
    <path
       fill="#ffffff"
       d="m 4516.0037,1605.0924 h 210 v 80 h -130 v 140 h 115 v 80 h -115 v 145 h 130 v 80 h -210 z"
       id="path177"
       sodipodi:nodetypes="ccccccccccccc" />
    <path
       fill="#e9a033"
       d="m 4786.0037,1605.092 h 125 c 80,0 125,40 125,120 v 285 c 0,80 -37.4591,120.1995 -125,120 h -125 z m 125,80 c 30,0 45,10 45,40 v 285 c 0,30 -15,40 -45,40 h -45 v -365 z"
       id="path181"
       sodipodi:nodetypes="cccccccccccccc" />
    <path
       fill="#e9a033"
       d="m 5221.0037,1605.0924 c 80,0 125,40 125,120 v 60 c 0,80 -65,80 -75,80 0,0 75,0 75,80 v 60 c 0,80 -45,125 -125,125 h -125 v -525 z m -45,80 h 45 c 30,0 45,10 45,40 v 60 c 0,30 -15,40 -45,40 l -45,-0.032 z m 45,220 c 30,0 45,10 45,40 v 60 c 0,30 -15,40 -45,40 l -45,-0.032 0.014,-140.1817 z"
       id="path185"
       sodipodi:nodetypes="ccccccccccccccccccccccsc" />
    <path
       style="clip-rule:evenodd;fill-rule:evenodd;image-rendering:optimizeQuality;shape-rendering:geometricPrecision;text-rendering:geometricPrecision"
       fill="#ffffff"
       d="m 2576.0038,1605.0925 c 70,0 110,50 110,120 v 85 c 0,70 -10,100 -40,120 l 50,200 h -80 l -50,-200 h -50 v 200 h -80 v -525 z m -10,80 c 25,0 40,14.9999 40,40 v 85 c 0,25 -15,40 -40,40 h -50 v -165 z"
       id="path173-7"
       sodipodi:nodetypes="ccccccccccccccccccc" />
    <path
       style="clip-rule:evenodd;fill-rule:evenodd;image-rendering:optimizeQuality;shape-rendering:geometricPrecision;text-rendering:geometricPrecision"
       fill="#ffffff"
       d="m 4026.0038,1605.0925 c 69.9999,0 109.9999,50 109.9999,120 v 85 c 0,70 -10,100 -40,120 l 50,200 h -80 l -49.9999,-200 h -50 v 200 h -80 v -525 z m -10,80 c 25,0 39.9999,14.9999 39.9999,40 v 85 c 0,25 -14.9999,40 -39.9999,40 h -50 v -165 z"
       id="path173-7-6"
       sodipodi:nodetypes="ccccccccccccccccccc" />
  </g>
  <g
     id="g2"
     transform="translate(-3.9659318e-6,-2.7349443e-5)">
    <path
       id="path189"
       d="m 1565.0037,2250.0925 -195,-102.5001 -498.92857,403.2304 439.92857,-608.5135 z"
       style="fill:#e9a033;fill-opacity:1"
       sodipodi:nodetypes="ccccc" />
    <path
       fill="#ffffff"
       d="m 1680.0036,1485.0929 c 140,0 243.5686,112.7225 243.5686,252.7225 0,140 -103.5684,237.2771 -243.5685,237.2771 l 245,275 h -205 l -337,-410 h 297 c 65,0 99.5,-44.9116 99.5,-104.9116 0,-60 -34.5,-105.088 -99.5,-105.088 l -470,-4e-4 -120,-145 z"
       id="path145"
       sodipodi:nodetypes="cccccccccccc"
       style="clip-rule:evenodd;fill:#ffffff;fill-opacity:1;fill-rule:evenodd;stroke-width:0.999999;image-rendering:optimizeQuality;shape-rendering:geometricPrecision;text-rendering:geometricPrecision" />
    <path
       id="path44"
       style="fill:#e9a033;fill-opacity:1;stroke-width:0.929542"
       d="m 2100.0037,1127.5925 -380,275 c 118.3961,0 184.3965,59.8106 220,135 z"
       sodipodi:nodetypes="cccc" />
    <path
       id="path50"
       style="fill:#ffffff;fill-opacity:1;stroke:#ff4343;stroke-width:0;stroke-opacity:1"
       d="m 2003.9978,1511.1257 c 7.2761,4.0729 14.5521,8.1458 21.8282,12.2188 19.2769,10.7905 38.9589,37.1576 39.1777,59.248 v 560 c 0.1806,22.0907 -14.5187,49.6589 -33.6172,60.7617 -163.7937,95.2208 -327.589,190.4413 -491.3828,285.6621 -19.0984,11.1028 -50.2077,11.3569 -69.4844,0.5664 -89.9739,-50.3644 -179.9483,-100.7289 -269.9218,-151.0937 -35.7336,28.8809 -71.4658,57.7636 -107.1993,86.6445 l 343.1563,192.1504 c 43.3257,24.2601 96.4557,23.8336 139.3769,-1.1191 l 549.3106,-319.3516 c 42.921,-24.9534 70.1667,-70.0073 69.7617,-119.2207 v -630 c -0.4045,-49.2137 -33.5761,-94.9465 -76.9023,-119.207 l -67.1426,-37.5977 c -15.6534,40.1125 -31.3075,80.2255 -46.961,120.3379 z"
       sodipodi:nodetypes="csccssscccccccccc" />
    <path
       id="path54"
       style="fill:#ffffff;fill-opacity:1;stroke:#ff4343;stroke-width:0;stroke-opacity:1"
       d="M 1825.4861,1264.5339 1563.615,1117.8991 c -21.2879,-11.9199 -45.3756,-18.0915 -69.8418,-17.8945 -24.4658,0.1962 -48.4483,6.7538 -69.5371,19.0137 l -549.30857,319.3515 c -42.92179,24.9529 -75.32832,70.0088 -74.92378,119.2227 v 630 c 0.40411,49.2133 38.73705,94.9441 82.06248,119.2051 l 80.5293,45.0937 c 25.0899,-34.8316 50.17957,-69.6645 75.26947,-104.4961 -21.1744,-11.8528 -42.34887,-23.7058 -63.52337,-35.5586 -19.2767,-10.7905 -39.15718,-37.1534 -39.33788,-59.2441 v -560 c -0.1807,-22.0907 14.68068,-49.6627 33.77928,-60.7656 163.79427,-95.2207 327.58677,-190.4414 491.38087,-285.6621 9.5494,-5.5514 22.1014,-8.3899 34.6757,-8.4922 12.5742,-0.1023 25.1721,2.5305 34.8106,7.9258 60.5214,33.878 121.0431,67.7564 181.5644,101.6347 38.0907,-27.5661 76.1808,-55.1331 114.2715,-82.6992 z"
       sodipodi:nodetypes="ccccccccccscccssccc" />
  </g>
</svg>
